<?xml version="1.0" encoding="UTF-8" standalone="no"?>
<!-- Created with Inkscape (http://www.inkscape.org/) -->

<svg
   xmlns:dc="http://purl.org/dc/elements/1.1/"
   xmlns:cc="http://creativecommons.org/ns#"
   xmlns:rdf="http://www.w3.org/1999/02/22-rdf-syntax-ns#"
   xmlns:svg="http://www.w3.org/2000/svg"
   xmlns="http://www.w3.org/2000/svg"
   xmlns:sodipodi="http://sodipodi.sourceforge.net/DTD/sodipodi-0.dtd"
   xmlns:inkscape="http://www.inkscape.org/namespaces/inkscape"
   width="32px"
   height="32px"
   id="svg3247"
   version="1.1"
   inkscape:version="0.48.4 r9939"
   sodipodi:docname="New document 5">
  <defs
     id="defs3249" />
  <sodipodi:namedview
     id="base"
     pagecolor="#ffffff"
     bordercolor="#666666"
     borderopacity="1.0"
     inkscape:pageopacity="0.0"
     inkscape:pageshadow="2"
     inkscape:zoom="11.197802"
     inkscape:cx="16"
     inkscape:cy="16"
     inkscape:current-layer="layer1"
     showgrid="true"
     inkscape:grid-bbox="true"
     inkscape:document-units="px"
     inkscape:window-width="828"
     inkscape:window-height="549"
     inkscape:window-x="20"
     inkscape:window-y="20"
     inkscape:window-maximized="0" />
  <metadata
     id="metadata3252">
    <rdf:RDF>
      <cc:Work
         rdf:about="">
        <dc:format>image/svg+xml</dc:format>
        <dc:type
           rdf:resource="http://purl.org/dc/dcmitype/StillImage" />
        <dc:title></dc:title>
      </cc:Work>
    </rdf:RDF>
  </metadata>
  <g
     id="layer1"
     inkscape:label="Layer 1"
     inkscape:groupmode="layer">
    <circle
       transform="translate(-16.936721,-95.121979)"
       style="fill:#646464"
       sodipodi:ry="12"
       sodipodi:rx="12"
       sodipodi:cy="111.226"
       sodipodi:cx="32.922001"
       cx="32.922001"
       cy="111.226"
       r="12"
       id="circle3139" />
    <g
       transform="translate(-16.936721,-95.121979)"
       id="g3153">
      <polygon
         style="fill:#ffffff"
         points="32.923,110.062 35.11,114.513 35.11,108.466 40.004,108.466 32.925,100.492 25.845,108.466 30.741,108.466 30.741,114.52 "
         id="polygon3155" />
      <path
         style="fill:#ffffff"
         inkscape:connector-curvature="0"
         d="m 34.996,116.984 -0.105,-0.213 -1.967,-4.002 -1.965,4.01 -0.06,0.122 c -0.108,0.176 -0.18,0.323 -0.238,0.481 -0.104,0.283 -0.153,0.56 -0.153,0.834 0,1.331 1.083,2.414 2.415,2.414 1.331,0 2.414,-1.083 2.414,-2.414 0,-0.431 -0.118,-0.857 -0.341,-1.232 z"
         id="path3157" />
    </g>
  </g>
</svg>
